<?xml version="1.0" encoding="UTF-8"?><svg xmlns="http://www.w3.org/2000/svg" xmlns:xlink="http://www.w3.org/1999/xlink" fill-opacity="1" color-rendering="auto" color-interpolation="auto" text-rendering="auto" stroke="black" stroke-linecap="square" width="611" stroke-miterlimit="10" shape-rendering="auto" stroke-opacity="1" fill="black" stroke-dasharray="none" font-weight="normal" stroke-width="1" height="588" font-family="'Dialog'" font-style="normal" stroke-linejoin="miter" font-size="12px" stroke-dashoffset="0" image-rendering="auto">
  <!--Generated by ySVG 2.5-->
  <defs id="genericDefs"/>
  <g>
    <defs id="defs1">
      <clipPath clipPathUnits="userSpaceOnUse" id="clipPath1">
        <path d="M0 0 L611 0 L611 588 L0 588 L0 0 Z"/>
      </clipPath>
    </defs>
    <g id="y.node.0">
      <a target="_blank" xlink:type="simple" xlink:href="karbonaĵoj.html" xlink:show="new">
        <g fill="rgb(51,51,51)" text-rendering="geometricPrecision" shape-rendering="geometricPrecision" transform="matrix(1,0,0,1,-88,-83)" stroke="rgb(51,51,51)">
          <rect x="270" y="98" width="117" rx="4" ry="4" height="54" stroke="none"/>
        </g>
        <g text-rendering="geometricPrecision" stroke-miterlimit="1.45" shape-rendering="geometricPrecision" transform="matrix(1,0,0,1,-88,-83)" stroke-linecap="butt">
          <rect x="270" y="98" fill="none" width="117" rx="4" ry="4" height="54"/>
        </g>
        <g>
          <g stroke-linecap="butt" transform="matrix(1,0,0,1,-88,-83)" fill="white" text-rendering="geometricPrecision" font-family="sans-serif" shape-rendering="geometricPrecision" stroke="white" stroke-miterlimit="1.45">
            <text x="293.6221" xml:space="preserve" y="115.1855" stroke="none">amasiĝo de</text>
            <text x="285.6094" xml:space="preserve" y="129.1543" stroke="none">karbonaĵoj en </text>
            <text x="290.6367" xml:space="preserve" y="143.123" stroke="none">la atmosfero</text>
          </g>
        </g>
      </a>
    </g>
    <g id="y.node.1">
      <a target="_blank" xlink:type="simple" xlink:href="klimato.html" xlink:show="new">
        <g fill="silver" text-rendering="geometricPrecision" shape-rendering="geometricPrecision" transform="matrix(1,0,0,1,-88,-83)" stroke="silver">
          <rect x="270" y="242" width="117" rx="4" ry="4" height="54" stroke="none"/>
        </g>
        <g text-rendering="geometricPrecision" stroke-miterlimit="1.45" shape-rendering="geometricPrecision" transform="matrix(1,0,0,1,-88,-83)" stroke-linecap="butt">
          <rect x="270" y="242" fill="none" width="117" rx="4" ry="4" height="54"/>
        </g>
        <g>
          <g text-rendering="geometricPrecision" stroke-miterlimit="1.45" shape-rendering="geometricPrecision" font-family="sans-serif" transform="matrix(1,0,0,1,-88,-83)" stroke-linecap="butt">
            <text x="303.9521" xml:space="preserve" y="266.1699" stroke="none">averaĝa</text>
            <text x="303.8145" xml:space="preserve" y="280.1387" stroke="none">varmiĝo</text>
          </g>
        </g>
      </a>
    </g>
    <g id="y.node.2">
      <a target="_blank" xlink:type="simple" xlink:href="akvovaporo.html" xlink:show="new">
        <g fill="rgb(51,51,51)" text-rendering="geometricPrecision" shape-rendering="geometricPrecision" transform="matrix(1,0,0,1,-88,-83)" stroke="rgb(51,51,51)">
          <rect x="412" y="170" width="117" rx="4" ry="4" height="54" stroke="none"/>
        </g>
        <g text-rendering="geometricPrecision" stroke-miterlimit="1.45" shape-rendering="geometricPrecision" transform="matrix(1,0,0,1,-88,-83)" stroke-linecap="butt">
          <rect x="412" y="170" fill="none" width="117" rx="4" ry="4" height="54"/>
        </g>
        <g>
          <g stroke-linecap="butt" transform="matrix(1,0,0,1,-88,-83)" fill="white" text-rendering="geometricPrecision" font-family="sans-serif" shape-rendering="geometricPrecision" stroke="white" stroke-miterlimit="1.45">
            <text x="434.7725" xml:space="preserve" y="194.1699" stroke="none">vaporiĝo de</text>
            <text x="437.6846" xml:space="preserve" y="208.1387" stroke="none">pli da akvo</text>
          </g>
        </g>
      </a>
    </g>
    <g id="y.node.3">
      <a target="_blank" xlink:type="simple" xlink:href="maracidiĝo.html" xlink:show="new">
        <g fill="silver" text-rendering="geometricPrecision" shape-rendering="geometricPrecision" transform="matrix(1,0,0,1,-88,-83)" stroke="silver">
          <rect x="554" y="242" width="117" rx="4" ry="4" height="54" stroke="none"/>
        </g>
        <g text-rendering="geometricPrecision" stroke-miterlimit="1.45" shape-rendering="geometricPrecision" transform="matrix(1,0,0,1,-88,-83)" stroke-linecap="butt">
          <rect x="554" y="242" fill="none" width="117" rx="4" ry="4" height="54"/>
        </g>
        <g>
          <g text-rendering="geometricPrecision" stroke-miterlimit="1.45" shape-rendering="geometricPrecision" font-family="sans-serif" transform="matrix(1,0,0,1,-88,-83)" stroke-linecap="butt">
            <text x="581.4951" xml:space="preserve" y="266.1699" stroke="none">acidiĝo de</text>
            <text x="586.1387" xml:space="preserve" y="280.1387" stroke="none">marakvo</text>
          </g>
        </g>
      </a>
    </g>
    <g id="y.node.4">
      <a target="_blank" xlink:type="simple" xlink:href="landa_glacio.html" xlink:show="new">
        <g fill="silver" text-rendering="geometricPrecision" shape-rendering="geometricPrecision" transform="matrix(1,0,0,1,-88,-83)" stroke="silver">
          <rect x="128" y="314" width="117" rx="4" ry="4" height="54" stroke="none"/>
        </g>
        <g text-rendering="geometricPrecision" stroke-miterlimit="1.45" shape-rendering="geometricPrecision" transform="matrix(1,0,0,1,-88,-83)" stroke-linecap="butt">
          <rect x="128" y="314" fill="none" width="117" rx="4" ry="4" height="54"/>
        </g>
        <g>
          <g text-rendering="geometricPrecision" stroke-miterlimit="1.45" shape-rendering="geometricPrecision" font-family="sans-serif" transform="matrix(1,0,0,1,-88,-83)" stroke-linecap="butt">
            <text x="156.7549" xml:space="preserve" y="338.1699" stroke="none">degelo de</text>
            <text x="150.1719" xml:space="preserve" y="352.1387" stroke="none">landa glacio</text>
          </g>
        </g>
      </a>
    </g>
    <g id="y.node.5">
      <a target="_blank" xlink:type="simple" xlink:href="mara_glacio.html" xlink:show="new">
        <g fill="silver" text-rendering="geometricPrecision" shape-rendering="geometricPrecision" transform="matrix(1,0,0,1,-88,-83)" stroke="silver">
          <rect x="412" y="314" width="117" rx="4" ry="4" height="54" stroke="none"/>
        </g>
        <g text-rendering="geometricPrecision" stroke-miterlimit="1.45" shape-rendering="geometricPrecision" transform="matrix(1,0,0,1,-88,-83)" stroke-linecap="butt">
          <rect x="412" y="314" fill="none" width="117" rx="4" ry="4" height="54"/>
        </g>
        <g>
          <g text-rendering="geometricPrecision" stroke-miterlimit="1.45" shape-rendering="geometricPrecision" font-family="sans-serif" transform="matrix(1,0,0,1,-88,-83)" stroke-linecap="butt">
            <text x="440.7549" xml:space="preserve" y="338.1699" stroke="none">degelo de</text>
            <text x="435.1387" xml:space="preserve" y="352.1387" stroke="none">mara glacio</text>
          </g>
        </g>
      </a>
    </g>
    <g id="y.node.6">
      <a target="_blank" xlink:type="simple" xlink:href="lagoj.html" xlink:show="new">
        <g fill="silver" text-rendering="geometricPrecision" shape-rendering="geometricPrecision" transform="matrix(1,0,0,1,-88,-83)" stroke="silver">
          <rect x="128" y="242" width="117" rx="4" ry="4" height="54" stroke="none"/>
        </g>
        <g text-rendering="geometricPrecision" stroke-miterlimit="1.45" shape-rendering="geometricPrecision" transform="matrix(1,0,0,1,-88,-83)" stroke-linecap="butt">
          <rect x="128" y="242" fill="none" width="117" rx="4" ry="4" height="54"/>
        </g>
        <g>
          <g text-rendering="geometricPrecision" stroke-miterlimit="1.45" shape-rendering="geometricPrecision" font-family="sans-serif" transform="matrix(1,0,0,1,-88,-83)" stroke-linecap="butt">
            <text x="161.8145" xml:space="preserve" y="266.1699" stroke="none">varmiĝo</text>
            <text x="162.6025" xml:space="preserve" y="280.1387" stroke="none">de lagoj</text>
          </g>
        </g>
      </a>
    </g>
    <g id="y.node.7">
      <a target="_blank" xlink:type="simple" xlink:href="metano.html" xlink:show="new">
        <g fill="rgb(51,51,51)" text-rendering="geometricPrecision" shape-rendering="geometricPrecision" transform="matrix(1,0,0,1,-88,-83)" stroke="rgb(51,51,51)">
          <rect x="128" y="170" width="117" rx="4" ry="4" height="54" stroke="none"/>
        </g>
        <g text-rendering="geometricPrecision" stroke-miterlimit="1.45" shape-rendering="geometricPrecision" transform="matrix(1,0,0,1,-88,-83)" stroke-linecap="butt">
          <rect x="128" y="170" fill="none" width="117" rx="4" ry="4" height="54"/>
        </g>
        <g>
          <g stroke-linecap="butt" transform="matrix(1,0,0,1,-88,-83)" fill="white" text-rendering="geometricPrecision" font-family="sans-serif" shape-rendering="geometricPrecision" stroke="white" stroke-miterlimit="1.45">
            <text x="159.4766" xml:space="preserve" y="194.1699" stroke="none">elgasiĝo </text>
            <text x="154.0537" xml:space="preserve" y="208.1387" stroke="none">de metano</text>
          </g>
        </g>
      </a>
    </g>
    <g id="y.node.8">
      <a target="_blank" xlink:type="simple" xlink:href="marfluoj.html" xlink:show="new">
        <g fill="silver" text-rendering="geometricPrecision" shape-rendering="geometricPrecision" transform="matrix(1,0,0,1,-88,-83)" stroke="silver">
          <rect x="554" y="314" width="117" rx="4" ry="4" height="54" stroke="none"/>
        </g>
        <g text-rendering="geometricPrecision" stroke-miterlimit="1.45" shape-rendering="geometricPrecision" transform="matrix(1,0,0,1,-88,-83)" stroke-linecap="butt">
          <rect x="554" y="314" fill="none" width="117" rx="4" ry="4" height="54"/>
        </g>
        <g>
          <g text-rendering="geometricPrecision" stroke-miterlimit="1.45" shape-rendering="geometricPrecision" font-family="sans-serif" transform="matrix(1,0,0,1,-88,-83)" stroke-linecap="butt">
            <text x="579.5322" xml:space="preserve" y="338.1699" stroke="none">ŝanĝiĝo de</text>
            <text x="587.5918" xml:space="preserve" y="352.1387" stroke="none">marfluoj</text>
          </g>
        </g>
      </a>
    </g>
    <g id="y.node.9">
      <a target="_blank" xlink:type="simple" xlink:href="marsurfaco.html" xlink:show="new">
        <g fill="silver" text-rendering="geometricPrecision" shape-rendering="geometricPrecision" transform="matrix(1,0,0,1,-88,-83)" stroke="silver">
          <rect x="412" y="242" width="117" rx="4" ry="4" height="54" stroke="none"/>
        </g>
        <g text-rendering="geometricPrecision" stroke-miterlimit="1.45" shape-rendering="geometricPrecision" transform="matrix(1,0,0,1,-88,-83)" stroke-linecap="butt">
          <rect x="412" y="242" fill="none" width="117" rx="4" ry="4" height="54"/>
        </g>
        <g>
          <g text-rendering="geometricPrecision" stroke-miterlimit="1.45" shape-rendering="geometricPrecision" font-family="sans-serif" transform="matrix(1,0,0,1,-88,-83)" stroke-linecap="butt">
            <text x="436.4072" xml:space="preserve" y="266.1699" stroke="none">varmiĝo de</text>
            <text x="436.3574" xml:space="preserve" y="280.1387" stroke="none">marsurfaco</text>
          </g>
        </g>
      </a>
    </g>
    <g id="y.node.10">
      <a target="_blank" xlink:type="simple" xlink:href="aerfluoj.html" xlink:show="new">
        <g fill="silver" text-rendering="geometricPrecision" shape-rendering="geometricPrecision" transform="matrix(1,0,0,1,-88,-83)" stroke="silver">
          <rect x="270" y="314" width="117" rx="4" ry="4" height="54" stroke="none"/>
        </g>
        <g text-rendering="geometricPrecision" stroke-miterlimit="1.45" shape-rendering="geometricPrecision" transform="matrix(1,0,0,1,-88,-83)" stroke-linecap="butt">
          <rect x="270" y="314" fill="none" width="117" rx="4" ry="4" height="54"/>
        </g>
        <g>
          <g text-rendering="geometricPrecision" stroke-miterlimit="1.45" shape-rendering="geometricPrecision" font-family="sans-serif" transform="matrix(1,0,0,1,-88,-83)" stroke-linecap="butt">
            <text x="295.5322" xml:space="preserve" y="338.1699" stroke="none">ŝanĝiĝo de</text>
            <text x="305.7451" xml:space="preserve" y="352.1387" stroke="none">aerfluoj</text>
          </g>
        </g>
      </a>
    </g>
    <g id="y.node.11">
      <a target="_blank" xlink:type="simple" xlink:href="malstabiliĝo_grundoj.html" xlink:show="new">
        <g fill="rgb(204,255,255)" text-rendering="geometricPrecision" shape-rendering="geometricPrecision" transform="matrix(1,0,0,1,-88,-83)" stroke="rgb(204,255,255)">
          <rect x="128" y="386" width="117" rx="4" ry="4" height="54" stroke="none"/>
        </g>
        <g text-rendering="geometricPrecision" stroke-miterlimit="1.45" shape-rendering="geometricPrecision" transform="matrix(1,0,0,1,-88,-83)" stroke-linecap="butt">
          <rect x="128" y="386" fill="none" width="117" rx="4" ry="4" height="54"/>
        </g>
        <g>
          <g text-rendering="geometricPrecision" stroke-miterlimit="1.45" shape-rendering="geometricPrecision" font-family="sans-serif" transform="matrix(1,0,0,1,-88,-83)" stroke-linecap="butt">
            <text x="149.8672" xml:space="preserve" y="410.1699" stroke="none">malstabiliĝo</text>
            <text x="154.0654" xml:space="preserve" y="424.1387" stroke="none">de grundoj</text>
          </g>
        </g>
      </a>
    </g>
    <g id="y.node.12">
      <a target="_blank" xlink:type="simple" xlink:href="vetero.html" xlink:show="new">
        <g fill="rgb(204,255,255)" text-rendering="geometricPrecision" shape-rendering="geometricPrecision" transform="matrix(1,0,0,1,-88,-83)" stroke="rgb(204,255,255)">
          <rect x="270" y="386" width="117" rx="4" ry="4" height="54" stroke="none"/>
        </g>
        <g text-rendering="geometricPrecision" stroke-miterlimit="1.45" shape-rendering="geometricPrecision" transform="matrix(1,0,0,1,-88,-83)" stroke-linecap="butt">
          <rect x="270" y="386" fill="none" width="117" rx="4" ry="4" height="54"/>
        </g>
        <g>
          <g text-rendering="geometricPrecision" stroke-miterlimit="1.45" shape-rendering="geometricPrecision" font-family="sans-serif" transform="matrix(1,0,0,1,-88,-83)" stroke-linecap="butt">
            <text x="289.96" xml:space="preserve" y="410.1699" stroke="none">malstabiliĝo </text>
            <text x="299.6689" xml:space="preserve" y="424.1387" stroke="none">de vetero</text>
          </g>
        </g>
      </a>
    </g>
    <g id="y.node.13">
      <a target="_blank" xlink:type="simple" xlink:href="ĉebordaj_inundoj.html" xlink:show="new">
        <g fill="rgb(204,255,255)" text-rendering="geometricPrecision" shape-rendering="geometricPrecision" transform="matrix(1,0,0,1,-88,-83)" stroke="rgb(204,255,255)">
          <rect x="554" y="458" width="117" rx="4" ry="4" height="54" stroke="none"/>
        </g>
        <g text-rendering="geometricPrecision" stroke-miterlimit="1.45" shape-rendering="geometricPrecision" transform="matrix(1,0,0,1,-88,-83)" stroke-linecap="butt">
          <rect x="554" y="458" fill="none" width="117" rx="4" ry="4" height="54"/>
        </g>
        <g>
          <g text-rendering="geometricPrecision" stroke-miterlimit="1.45" shape-rendering="geometricPrecision" font-family="sans-serif" transform="matrix(1,0,0,1,-88,-83)" stroke-linecap="butt">
            <text x="562.2822" xml:space="preserve" y="489.1543" stroke="none">ĉebordaj inundoj</text>
          </g>
        </g>
      </a>
    </g>
    <g id="y.node.14">
      <a target="_blank" xlink:type="simple" xlink:href="marnivelo.html" xlink:show="new">
        <g fill="rgb(204,255,255)" text-rendering="geometricPrecision" shape-rendering="geometricPrecision" transform="matrix(1,0,0,1,-88,-83)" stroke="rgb(204,255,255)">
          <rect x="412" y="386" width="117" rx="4" ry="4" height="54" stroke="none"/>
        </g>
        <g text-rendering="geometricPrecision" stroke-miterlimit="1.45" shape-rendering="geometricPrecision" transform="matrix(1,0,0,1,-88,-83)" stroke-linecap="butt">
          <rect x="412" y="386" fill="none" width="117" rx="4" ry="4" height="54"/>
        </g>
        <g>
          <g text-rendering="geometricPrecision" stroke-miterlimit="1.45" shape-rendering="geometricPrecision" font-family="sans-serif" transform="matrix(1,0,0,1,-88,-83)" stroke-linecap="butt">
            <text x="443.0371" xml:space="preserve" y="410.1699" stroke="none">leviĝo de</text>
            <text x="433.2109" xml:space="preserve" y="424.1387" stroke="none">la marnivelo</text>
          </g>
        </g>
      </a>
    </g>
    <g id="y.node.15">
      <a target="_blank" xlink:type="simple" xlink:href="rikoltoj.html" xlink:show="new">
        <g fill="rgb(204,255,204)" text-rendering="geometricPrecision" shape-rendering="geometricPrecision" transform="matrix(1,0,0,1,-88,-83)" stroke="rgb(204,255,204)">
          <rect x="270" y="530" width="117" rx="4" ry="4" height="54" stroke="none"/>
        </g>
        <g text-rendering="geometricPrecision" stroke-miterlimit="1.45" shape-rendering="geometricPrecision" transform="matrix(1,0,0,1,-88,-83)" stroke-linecap="butt">
          <rect x="270" y="530" fill="none" width="117" rx="4" ry="4" height="54"/>
        </g>
        <g>
          <g text-rendering="geometricPrecision" stroke-miterlimit="1.45" shape-rendering="geometricPrecision" font-family="sans-serif" transform="matrix(1,0,0,1,-88,-83)" stroke-linecap="butt">
            <text x="307.8633" xml:space="preserve" y="561.1543" stroke="none">rikoltoj</text>
          </g>
        </g>
      </a>
    </g>
    <g id="y.node.16">
      <a target="_blank" xlink:type="simple" xlink:href="landaj_ekosistemoj.html" xlink:show="new">
        <g fill="rgb(204,255,204)" text-rendering="geometricPrecision" shape-rendering="geometricPrecision" transform="matrix(1,0,0,1,-88,-83)" stroke="rgb(204,255,204)">
          <rect x="270" y="458" width="117" rx="4" ry="4" height="54" stroke="none"/>
        </g>
        <g text-rendering="geometricPrecision" stroke-miterlimit="1.45" shape-rendering="geometricPrecision" transform="matrix(1,0,0,1,-88,-83)" stroke-linecap="butt">
          <rect x="270" y="458" fill="none" width="117" rx="4" ry="4" height="54"/>
        </g>
        <g>
          <g text-rendering="geometricPrecision" stroke-miterlimit="1.45" shape-rendering="geometricPrecision" font-family="sans-serif" transform="matrix(1,0,0,1,-88,-83)" stroke-linecap="butt">
            <text x="275.3262" xml:space="preserve" y="482.1699" stroke="none">ŝanĝiĝo de landaj</text>
            <text x="292.5176" xml:space="preserve" y="496.1387" stroke="none">ekosistemoj</text>
          </g>
        </g>
      </a>
    </g>
    <g id="y.node.17">
      <a target="_blank" xlink:type="simple" xlink:href="maraj_ekosistemoj.html" xlink:show="new">
        <g fill="rgb(204,255,204)" text-rendering="geometricPrecision" shape-rendering="geometricPrecision" transform="matrix(1,0,0,1,-88,-83)" stroke="rgb(204,255,204)">
          <rect x="412" y="458" width="117" rx="4" ry="4" height="54" stroke="none"/>
        </g>
        <g text-rendering="geometricPrecision" stroke-miterlimit="1.45" shape-rendering="geometricPrecision" transform="matrix(1,0,0,1,-88,-83)" stroke-linecap="butt">
          <rect x="412" y="458" fill="none" width="117" rx="4" ry="4" height="54"/>
        </g>
        <g>
          <g text-rendering="geometricPrecision" stroke-miterlimit="1.45" shape-rendering="geometricPrecision" font-family="sans-serif" transform="matrix(1,0,0,1,-88,-83)" stroke-linecap="butt">
            <text x="418.293" xml:space="preserve" y="482.1699" stroke="none">ŝanĝiĝo de maraj</text>
            <text x="434.5176" xml:space="preserve" y="496.1387" stroke="none">ekosistemoj</text>
          </g>
        </g>
      </a>
    </g>
    <g id="y.node.18">
      <a target="_blank" xlink:type="simple" xlink:href="krizoj.html" xlink:show="new">
        <g fill="teal" text-rendering="geometricPrecision" shape-rendering="geometricPrecision" transform="matrix(1,0,0,1,-88,-83)" stroke="teal">
          <rect x="270" y="602" width="117" rx="4" ry="4" height="54" stroke="none"/>
        </g>
        <g text-rendering="geometricPrecision" stroke-miterlimit="1.45" shape-rendering="geometricPrecision" transform="matrix(1,0,0,1,-88,-83)" stroke-linecap="butt">
          <rect x="270" y="602" fill="none" width="117" rx="4" ry="4" height="54"/>
        </g>
        <g>
          <g stroke-linecap="butt" transform="matrix(1,0,0,1,-88,-83)" fill="white" text-rendering="geometricPrecision" font-family="sans-serif" shape-rendering="geometricPrecision" stroke="white" stroke-miterlimit="1.45">
            <text x="312.4043" xml:space="preserve" y="633.1543" stroke="none">krizoj</text>
          </g>
        </g>
      </a>
    </g>
    <g id="y.node.19">
      <a target="_blank" xlink:type="simple" xlink:href="surlandaj_inundoj.html" xlink:show="new">
        <g fill="rgb(204,255,255)" text-rendering="geometricPrecision" shape-rendering="geometricPrecision" transform="matrix(1,0,0,1,-88,-83)" stroke="rgb(204,255,255)">
          <rect x="128" y="458" width="117" rx="4" ry="4" height="54" stroke="none"/>
        </g>
        <g text-rendering="geometricPrecision" stroke-miterlimit="1.45" shape-rendering="geometricPrecision" transform="matrix(1,0,0,1,-88,-83)" stroke-linecap="butt">
          <rect x="128" y="458" fill="none" width="117" rx="4" ry="4" height="54"/>
        </g>
        <g>
          <g text-rendering="geometricPrecision" stroke-miterlimit="1.45" shape-rendering="geometricPrecision" font-family="sans-serif" transform="matrix(1,0,0,1,-88,-83)" stroke-linecap="butt">
            <text x="158.8057" xml:space="preserve" y="482.1699" stroke="none">surlandaj</text>
            <text x="164.2783" xml:space="preserve" y="496.1387" stroke="none">inundoj</text>
          </g>
        </g>
      </a>
    </g>
    <g id="y.edge.39">
      <g text-rendering="geometricPrecision" stroke-miterlimit="1.45" shape-rendering="geometricPrecision" transform="matrix(1,0,0,1,-88,-83)" stroke-linecap="butt">
        <path fill="none" d="M328.5 151.9648 L328.5 233.9985"/>
        <path d="M328.5 241.9985 L333.5 229.9985 L328.5 232.9985 L323.5 229.9985 Z" stroke="none"/>
      </g>
    </g>
    <g id="y.edge.41">
      <g text-rendering="geometricPrecision" stroke-miterlimit="1.45" shape-rendering="geometricPrecision" transform="matrix(1,0,0,1,-88,-83)" stroke-linecap="butt">
        <path fill="none" d="M381.7847 241.9824 L410.1269 227.6117"/>
        <path d="M417.2621 223.9939 L404.2982 224.9611 L409.235 228.0639 L408.8205 233.8801 Z" stroke="none"/>
      </g>
    </g>
    <g id="y.edge.40">
      <g text-rendering="geometricPrecision" stroke-miterlimit="1.45" shape-rendering="geometricPrecision" transform="matrix(1,0,0,1,-88,-83)" stroke-linecap="butt">
        <path fill="none" d="M417.2847 223.9824 L388.9147 238.3672"/>
        <path d="M381.7795 241.9851 L394.7434 241.0178 L389.8066 237.915 L390.2211 232.0988 Z" stroke="none"/>
      </g>
    </g>
    <g id="y.edge.0">
      <g text-rendering="geometricPrecision" stroke-miterlimit="1.45" shape-rendering="geometricPrecision" transform="matrix(1,0,0,1,-88,-83)" stroke-linecap="butt">
        <path fill="none" d="M386.9849 125 L602.5 125 L606.875 125.625 L610 127.5 L611.875 130.625 L612.5 135 L612.5 233.9648"/>
        <path d="M612.5 241.9648 L617.5 229.9648 L612.5 232.9648 L607.5 229.9648 Z" stroke="none"/>
      </g>
    </g>
    <g id="y.edge.2">
      <g text-rendering="geometricPrecision" stroke-miterlimit="1.45" shape-rendering="geometricPrecision" transform="matrix(1,0,0,1,-88,-83)" stroke-linecap="butt">
        <path fill="none" d="M275.2847 295.9824 L246.9147 310.3672"/>
        <path d="M239.7795 313.985 L252.7434 313.0178 L247.8066 309.915 L248.2211 304.0988 Z" stroke="none"/>
      </g>
    </g>
    <g id="y.edge.3">
      <g text-rendering="geometricPrecision" stroke-miterlimit="1.45" shape-rendering="geometricPrecision" transform="matrix(1,0,0,1,-88,-83)" stroke-linecap="butt">
        <path fill="none" d="M381.7153 295.9824 L410.0853 310.3672"/>
        <path d="M417.2206 313.985 L408.7789 304.0988 L409.1935 309.915 L404.2566 313.0178 Z" stroke="none"/>
      </g>
    </g>
    <g id="y.edge.1">
      <g text-rendering="geometricPrecision" stroke-miterlimit="1.45" shape-rendering="geometricPrecision" transform="matrix(1,0,0,1,-88,-83)" stroke-linecap="butt">
        <path fill="none" d="M270.0151 269 L253.0177 269"/>
        <path d="M245.0177 269 L257.0177 274 L254.0177 269 L257.0177 264 Z" stroke="none"/>
      </g>
    </g>
    <g id="y.edge.37">
      <g text-rendering="geometricPrecision" stroke-miterlimit="1.45" shape-rendering="geometricPrecision" transform="matrix(1,0,0,1,-88,-83)" stroke-linecap="butt">
        <path fill="none" d="M243.5515 242.9204 L290.3557 203.447 L298.5889 198.6118 L308 197 L404.0033 197"/>
        <path d="M412.0033 197 L400.0033 192 L403.0033 197 L400.0033 202 Z" stroke="none"/>
      </g>
    </g>
    <g id="y.edge.4">
      <g text-rendering="geometricPrecision" stroke-miterlimit="1.45" shape-rendering="geometricPrecision" transform="matrix(1,0,0,1,-88,-83)" stroke-linecap="butt">
        <path fill="none" d="M127.9929 341 L113 341 L108.625 340.375 L105.5 338.5 L103.625 335.375 L103 331 L103 207 L103.531 202.625 L105.1241 199.5 L107.7793 197.625 L111.4965 197 L119.9929 197"/>
        <path d="M127.9929 197 L115.9929 192 L118.9929 197 L115.9929 202 Z" stroke="none"/>
      </g>
    </g>
    <g id="y.edge.5">
      <g text-rendering="geometricPrecision" stroke-miterlimit="1.45" shape-rendering="geometricPrecision" transform="matrix(1,0,0,1,-88,-83)" stroke-linecap="butt">
        <path fill="none" d="M186.5 169.9648 L186.5 135 L187.125 130.625 L189 127.5 L192.125 125.625 L196.5 125 L262.0151 125"/>
        <path d="M270.0151 125 L258.0151 120 L261.0151 125 L258.0151 130 Z" stroke="none"/>
      </g>
    </g>
    <g id="y.edge.6">
      <g text-rendering="geometricPrecision" stroke-miterlimit="1.45" shape-rendering="geometricPrecision" transform="matrix(1,0,0,1,-88,-83)" stroke-linecap="butt">
        <path fill="none" d="M528.9849 341 L545.9823 341"/>
        <path d="M553.9823 341 L541.9823 336 L544.9823 341 L541.9823 346 Z" stroke="none"/>
      </g>
    </g>
    <g id="y.edge.7">
      <g text-rendering="geometricPrecision" stroke-miterlimit="1.45" shape-rendering="geometricPrecision" transform="matrix(1,0,0,1,-88,-83)" stroke-linecap="butt">
        <path fill="none" d="M386.9849 269 L403.9823 269"/>
        <path d="M411.9823 269 L399.9823 264 L402.9823 269 L399.9823 274 Z" stroke="none"/>
      </g>
    </g>
    <g id="y.edge.8">
      <g text-rendering="geometricPrecision" stroke-miterlimit="1.45" shape-rendering="geometricPrecision" transform="matrix(1,0,0,1,-88,-83)" stroke-linecap="butt">
        <path fill="none" d="M523.7153 295.9824 L552.0853 310.3672"/>
        <path d="M559.2205 313.985 L550.7789 304.0988 L551.1934 309.915 L546.2565 313.0178 Z" stroke="none"/>
      </g>
    </g>
    <g id="y.edge.38">
      <g text-rendering="geometricPrecision" stroke-miterlimit="1.45" shape-rendering="geometricPrecision" transform="matrix(1,0,0,1,-88,-83)" stroke-linecap="butt">
        <path fill="none" d="M470.5 241.9648 L470.5 232.0052"/>
        <path d="M470.5 224.0052 L465.5 236.0052 L470.5 233.0052 L475.5 236.0052 Z" stroke="none"/>
      </g>
    </g>
    <g id="y.edge.9">
      <g text-rendering="geometricPrecision" stroke-miterlimit="1.45" shape-rendering="geometricPrecision" transform="matrix(1,0,0,1,-88,-83)" stroke-linecap="butt">
        <path fill="none" d="M328.5 295.9648 L328.5 306.0405"/>
        <path d="M328.5 314.0405 L333.5 302.0405 L328.5 305.0405 L323.5 302.0405 Z" stroke="none"/>
      </g>
    </g>
    <g id="y.edge.12">
      <g text-rendering="geometricPrecision" stroke-miterlimit="1.45" shape-rendering="geometricPrecision" transform="matrix(1,0,0,1,-88,-83)" stroke-linecap="butt">
        <path fill="none" d="M186.5 367.9648 L186.5 378.0405"/>
        <path d="M186.5 386.0405 L191.5 374.0405 L186.5 377.0405 L181.5 374.0405 Z" stroke="none"/>
      </g>
    </g>
    <g id="y.edge.10">
      <g text-rendering="geometricPrecision" stroke-miterlimit="1.45" shape-rendering="geometricPrecision" transform="matrix(1,0,0,1,-88,-83)" stroke-linecap="butt">
        <path fill="none" d="M328.5 367.9648 L328.5 378.0405"/>
        <path d="M328.5 386.0405 L333.5 374.0405 L328.5 377.0405 L323.5 374.0405 Z" stroke="none"/>
      </g>
    </g>
    <g id="y.edge.11">
      <g text-rendering="geometricPrecision" stroke-miterlimit="1.45" shape-rendering="geometricPrecision" transform="matrix(1,0,0,1,-88,-83)" stroke-linecap="butt">
        <path fill="none" d="M557.4436 367.9507 L549.2218 371.9753 L540.5554 374.9938 L531 376 L370 376 L362.0831 376.4897 L358.3325 377.9587 L356.665 379.9173"/>
        <path d="M351.479 386.0088 L363.0651 380.1129 L357.3132 379.1559 L355.4508 373.6304 Z" stroke="none"/>
      </g>
    </g>
    <g id="y.edge.13">
      <g text-rendering="geometricPrecision" stroke-miterlimit="1.45" shape-rendering="geometricPrecision" transform="matrix(1,0,0,1,-88,-83)" stroke-linecap="butt">
        <path fill="none" d="M287.3933 296.0044 L268.3578 308.5094 L264.7013 311.5366 L262.0895 315.1273 L260.5224 319.2818 L260 324 L260 359 L260.5258 363.7128 L262.1035 367.8511 L264.7328 371.415 L268.4138 374.4045 L279.7258 381.6706"/>
        <path d="M286.4568 385.9941 L279.0625 375.3019 L278.8844 381.1301 L273.658 383.7157 Z" stroke="none"/>
      </g>
    </g>
    <g id="y.edge.36">
      <g text-rendering="geometricPrecision" stroke-miterlimit="1.45" shape-rendering="geometricPrecision" transform="matrix(1,0,0,1,-88,-83)" stroke-linecap="butt">
        <path fill="none" d="M417.2847 367.9824 L388.9147 382.3672"/>
        <path d="M381.7794 385.985 L394.7434 385.0178 L389.8065 381.915 L390.2211 376.0988 Z" stroke="none"/>
      </g>
    </g>
    <g id="y.edge.27">
      <g text-rendering="geometricPrecision" stroke-miterlimit="1.45" shape-rendering="geometricPrecision" transform="matrix(1,0,0,1,-88,-83)" stroke-linecap="butt">
        <path fill="none" d="M386.967 435.4619 L407.6652 443.4138 L417.1663 446.1035 L427 447 L522 447 L531.6174 447.9995 L540.4695 450.998 L548.9391 454.9961"/>
        <path d="M556.1736 458.4111 L547.4562 448.7671 L548.0348 454.5692 L543.1875 457.8102 Z" stroke="none"/>
      </g>
    </g>
    <g id="y.edge.14">
      <g text-rendering="geometricPrecision" stroke-miterlimit="1.45" shape-rendering="geometricPrecision" transform="matrix(1,0,0,1,-88,-83)" stroke-linecap="butt">
        <path fill="none" d="M238.6936 368.0093 L249.1187 373.4041 L258.2797 376.851 L268 378 L361 378 L370.8583 378.8296 L380.4334 381.3183 L404.4339 389.7607"/>
        <path d="M411.9806 392.4153 L402.3197 383.7166 L403.4905 389.4288 L399.0014 393.15 Z" stroke="none"/>
      </g>
    </g>
    <g id="y.edge.15">
      <g text-rendering="geometricPrecision" stroke-miterlimit="1.45" shape-rendering="geometricPrecision" transform="matrix(1,0,0,1,-88,-83)" stroke-linecap="butt">
        <path fill="none" d="M422.5007 295.98 L402.7173 307.1001 L398.9035 309.8688 L396.1793 313.275 L394.5448 317.3188 L394 322 L394 357 L394.5356 361.6971 L396.1425 365.7883 L398.8206 369.2737 L402.57 372.1532 L418.7077 381.8569"/>
        <path d="M425.5637 385.9795 L417.8564 375.5107 L417.8507 381.3416 L412.7032 384.0807 Z" stroke="none"/>
      </g>
    </g>
    <g id="y.edge.16">
      <g text-rendering="geometricPrecision" stroke-miterlimit="1.45" shape-rendering="geometricPrecision" transform="matrix(1,0,0,1,-88,-83)" stroke-linecap="butt">
        <path fill="none" d="M529.0216 432.6917 L562.6366 453.7551"/>
        <path d="M569.4157 458.0029 L561.902 447.3943 L561.7892 453.2241 L556.5922 455.8681 Z" stroke="none"/>
      </g>
    </g>
    <g id="y.edge.35">
      <g text-rendering="geometricPrecision" stroke-miterlimit="1.45" shape-rendering="geometricPrecision" transform="matrix(1,0,0,1,-88,-83)" stroke-linecap="butt">
        <path fill="none" d="M370.2068 440.0044 L389.6059 452.565 L393.2783 455.5678 L395.9015 459.1412 L397.4754 463.2853 L398 468 L398 537 L397.6112 544.5559 L396.4447 547.2238 L394.8894 547.4476"/>
        <path d="M386.9709 548.5869 L399.5607 551.8269 L395.8792 547.3052 L398.1365 541.9289 Z" stroke="none"/>
      </g>
    </g>
    <g id="y.edge.42">
      <g text-rendering="geometricPrecision" stroke-miterlimit="1.45" shape-rendering="geometricPrecision" transform="matrix(1,0,0,1,-88,-83)" stroke-linecap="butt">
        <path fill="none" d="M583 512.0317 L583 557 L582.375 561.375 L580.5 564.5 L577.375 566.375 L573 567 L394.9954 567"/>
        <path d="M386.9954 567 L398.9954 572 L395.9954 567 L398.9954 562 Z" stroke="none"/>
      </g>
    </g>
    <g id="y.edge.20">
      <g text-rendering="geometricPrecision" stroke-miterlimit="1.45" shape-rendering="geometricPrecision" transform="matrix(1,0,0,1,-88,-83)" stroke-linecap="butt">
        <path fill="none" d="M328.5 439.9648 L328.5 450.0405"/>
        <path d="M328.5 458.0405 L333.5 446.0405 L328.5 449.0405 L323.5 446.0405 Z" stroke="none"/>
      </g>
    </g>
    <g id="y.edge.28">
      <g text-rendering="geometricPrecision" stroke-miterlimit="1.45" shape-rendering="geometricPrecision" transform="matrix(1,0,0,1,-88,-83)" stroke-linecap="butt">
        <path fill="none" d="M244.9993 286.9341 L249.9996 288.467 L252.1873 289.7627 L253.7499 292.1168 L255 300 L255 432 L255.5395 436.6906 L257.1578 440.7624 L259.8552 444.2154 L263.6314 447.0497 L275.4779 453.9803"/>
        <path d="M282.3831 458.02 L274.5502 447.6447 L274.6148 453.4753 L269.5005 456.2761 Z" stroke="none"/>
      </g>
    </g>
    <g id="y.edge.21">
      <g text-rendering="geometricPrecision" stroke-miterlimit="1.45" shape-rendering="geometricPrecision" transform="matrix(1,0,0,1,-88,-83)" stroke-linecap="butt">
        <path fill="none" d="M328.5 511.9648 L328.5 522.0405"/>
        <path d="M328.5 530.0405 L333.5 518.0405 L328.5 521.0405 L323.5 518.0405 Z" stroke="none"/>
      </g>
    </g>
    <g id="y.edge.17">
      <g text-rendering="geometricPrecision" stroke-miterlimit="1.45" shape-rendering="geometricPrecision" transform="matrix(1,0,0,1,-88,-83)" stroke-linecap="butt">
        <path fill="none" d="M381.7153 439.9824 L410.0853 454.3672"/>
        <path d="M417.2206 457.985 L408.7789 448.0988 L409.1935 453.915 L404.2566 457.0178 Z" stroke="none"/>
      </g>
    </g>
    <g id="y.edge.18">
      <g text-rendering="geometricPrecision" stroke-miterlimit="1.45" shape-rendering="geometricPrecision" transform="matrix(1,0,0,1,-88,-83)" stroke-linecap="butt">
        <path fill="none" d="M554.0151 485 L537.0177 485"/>
        <path d="M529.0177 485 L541.0177 490 L538.0177 485 L541.0177 480 Z" stroke="none"/>
      </g>
    </g>
    <g id="y.edge.19">
      <g text-rendering="geometricPrecision" stroke-miterlimit="1.45" shape-rendering="geometricPrecision" transform="matrix(1,0,0,1,-88,-83)" stroke-linecap="butt">
        <path fill="none" d="M386.9849 485 L403.9823 485"/>
        <path d="M411.9823 485 L399.9823 480 L402.9823 485 L399.9823 490 Z" stroke="none"/>
      </g>
    </g>
    <g id="y.edge.33">
      <g text-rendering="geometricPrecision" stroke-miterlimit="1.45" shape-rendering="geometricPrecision" transform="matrix(1,0,0,1,-88,-83)" stroke-linecap="butt">
        <path fill="none" d="M670.9778 269 L677.4889 269 L680.3375 269.625 L682.3722 271.5 L683.5931 274.625 L684 279 L684 423 L683.375 427.375 L681.5 430.5 L678.375 432.375 L674 433 L567 433 L557.3574 434.2881 L548.4294 438.1523 L522.2537 453.888"/>
        <path d="M515.3972 458.0098 L528.258 456.1124 L523.1107 453.3727 L523.1058 447.5418 Z" stroke="none"/>
      </g>
    </g>
    <g id="y.edge.22">
      <g text-rendering="geometricPrecision" stroke-miterlimit="1.45" shape-rendering="geometricPrecision" transform="matrix(1,0,0,1,-88,-83)" stroke-linecap="butt">
        <path fill="none" d="M417.2847 511.9824 L388.9147 526.3672"/>
        <path d="M381.7795 529.985 L394.7434 529.0178 L389.8066 525.915 L390.2211 520.0988 Z" stroke="none"/>
      </g>
    </g>
    <g id="y.edge.23">
      <g text-rendering="geometricPrecision" stroke-miterlimit="1.45" shape-rendering="geometricPrecision" transform="matrix(1,0,0,1,-88,-83)" stroke-linecap="butt">
        <path fill="none" d="M127.9695 413 L119.9847 413 L116.4914 413.625 L113.9962 415.5 L112.499 418.625 L112 423 L112 619 L112.625 623.375 L114.5 626.5 L117.625 628.375 L122 629 L262.0143 629"/>
        <path d="M270.0143 629 L258.0143 624 L261.0143 629 L258.0143 634 Z" stroke="none"/>
      </g>
    </g>
    <g id="y.edge.24">
      <g text-rendering="geometricPrecision" stroke-miterlimit="1.45" shape-rendering="geometricPrecision" transform="matrix(1,0,0,1,-88,-83)" stroke-linecap="butt">
        <path fill="none" d="M328.5 583.9648 L328.5 594.0405"/>
        <path d="M328.5 602.0405 L333.5 590.0405 L328.5 593.0405 L323.5 590.0405 Z" stroke="none"/>
      </g>
    </g>
    <g id="y.edge.25">
      <g text-rendering="geometricPrecision" stroke-miterlimit="1.45" shape-rendering="geometricPrecision" transform="matrix(1,0,0,1,-88,-83)" stroke-linecap="butt">
        <path fill="none" d="M612.5 511.9648 L612.5 619 L611.875 623.375 L610 626.5 L606.875 628.375 L602.5 629 L394.9849 629"/>
        <path d="M386.9849 629 L398.9849 634 L395.9849 629 L398.9849 624 Z" stroke="none"/>
      </g>
    </g>
    <g id="y.edge.32">
      <g text-rendering="geometricPrecision" stroke-miterlimit="1.45" shape-rendering="geometricPrecision" transform="matrix(1,0,0,1,-88,-83)" stroke-linecap="butt">
        <path fill="none" d="M287.9817 440.0122 L263.3205 456.453 L259.6803 459.5048 L257.0801 463.1133 L255.52 467.2783 L255 472 L255 582 L256.5876 590.2992 L258.5721 593.1732 L261.3504 595.1968 L267.7008 598.3936"/>
        <path d="M274.8464 601.9907 L266.3762 592.129 L266.8076 597.9439 L261.8797 601.061 Z" stroke="none"/>
      </g>
    </g>
    <g id="y.edge.26">
      <g text-rendering="geometricPrecision" stroke-miterlimit="1.45" shape-rendering="geometricPrecision" transform="matrix(1,0,0,1,-88,-83)" stroke-linecap="butt">
        <path fill="none" d="M275.2847 439.9824 L246.9147 454.3672"/>
        <path d="M239.7795 457.985 L252.7434 457.0178 L247.8066 453.915 L248.2211 448.0988 Z" stroke="none"/>
      </g>
    </g>
    <g id="y.edge.30">
      <g text-rendering="geometricPrecision" stroke-miterlimit="1.45" shape-rendering="geometricPrecision" transform="matrix(1,0,0,1,-88,-83)" stroke-linecap="butt">
        <path fill="none" d="M270.0151 485 L253.0177 485"/>
        <path d="M245.0177 485 L257.0177 490 L254.0177 485 L257.0177 480 Z" stroke="none"/>
      </g>
    </g>
    <g id="y.edge.29">
      <g text-rendering="geometricPrecision" stroke-miterlimit="1.45" shape-rendering="geometricPrecision" transform="matrix(1,0,0,1,-88,-83)" stroke-linecap="butt">
        <path fill="none" d="M244.9849 485 L261.9823 485"/>
        <path d="M269.9823 485 L257.9823 480 L260.9823 485 L257.9823 490 Z" stroke="none"/>
      </g>
    </g>
    <g id="y.edge.31">
      <g text-rendering="geometricPrecision" stroke-miterlimit="1.45" shape-rendering="geometricPrecision" transform="matrix(1,0,0,1,-88,-83)" stroke-linecap="butt">
        <path fill="none" d="M186.5 511.9736 L186.5 607 L187.125 611.375 L189 614.5 L192.125 616.375 L196.5 617 L261.9865 617"/>
        <path d="M269.9865 617 L257.9865 612 L260.9865 617 L257.9865 622 Z" stroke="none"/>
      </g>
    </g>
    <g id="y.edge.34">
      <g text-rendering="geometricPrecision" stroke-miterlimit="1.45" shape-rendering="geometricPrecision" transform="matrix(1,0,0,1,-88,-83)" stroke-linecap="butt">
        <path fill="none" d="M239.7153 511.9824 L268.0853 526.3672"/>
        <path d="M275.2205 529.985 L266.7789 520.0988 L267.1934 525.915 L262.2566 529.0178 Z" stroke="none"/>
      </g>
    </g>
  </g>
</svg>
